<svg width="145" height="22" viewBox="0 0 145 22" fill="none" xmlns="http://www.w3.org/2000/svg">
<path d="M15.6896 5.87726H0.845331C0.582338 5.87726 0.369141 6.09359 0.369141 6.36045V21.423C0.369141 21.6899 0.582338 21.9062 0.845331 21.9062H15.6896C15.9526 21.9062 16.1658 21.6899 16.1658 21.423V6.36045C16.1658 6.09359 15.9526 5.87726 15.6896 5.87726Z" fill="#076DF2"/>
<path d="M17.2188 21.1874V6.43876C17.2188 6.28708 17.2889 6.1442 17.4083 6.0529L23.5118 1.38486C23.8255 1.14489 24.2746 1.37202 24.2746 1.77073V15.9647C24.2746 16.1072 24.2127 16.2423 24.1054 16.3341L18.0019 21.5567C17.6923 21.8217 17.2188 21.5984 17.2188 21.1874Z" fill="#F26A4B"/>
<path d="M8.24136 0.392502L0.876451 3.99717C0.420537 4.22031 0.577156 4.91558 1.08333 4.91558H16.9025C17.0053 4.91558 17.1054 4.8818 17.1877 4.81932L22.3466 0.903954C22.7176 0.622323 22.5139 0.0233785 22.0506 0.0339516L8.43753 0.344642C8.36952 0.346194 8.30263 0.362513 8.24136 0.392502Z" fill="#FFBA16"/>
<path d="M35.512 11.224C36.1413 11.3413 36.6747 11.6613 37.112 12.184C37.5493 12.7067 37.768 13.3147 37.768 14.008C37.768 14.5733 37.624 15.0853 37.336 15.544C37.0587 15.992 36.648 16.3493 36.104 16.616C35.56 16.872 34.9093 17 34.152 17H30.28V5.816H34.04C35.1707 5.816 36.0293 6.07733 36.616 6.6C37.2133 7.12267 37.512 7.8 37.512 8.632C37.512 9.32533 37.3253 9.89067 36.952 10.328C36.5787 10.7547 36.0987 11.0533 35.512 11.224ZM31.4 10.76H34.008C34.7653 10.76 35.3467 10.584 35.752 10.232C36.168 9.86933 36.376 9.37333 36.376 8.744C36.376 8.12533 36.168 7.64 35.752 7.288C35.3467 6.936 34.7493 6.76 33.96 6.76H31.4V10.76ZM34.072 16.056C34.8827 16.056 35.512 15.864 35.96 15.48C36.4187 15.096 36.648 14.568 36.648 13.896C36.648 13.224 36.408 12.6907 35.928 12.296C35.4587 11.8907 34.824 11.688 34.024 11.688H31.4V16.056H34.072ZM47.3949 8.264V17H46.2749V15.464C46.0189 16.008 45.6242 16.424 45.0909 16.712C44.5575 17 43.9602 17.144 43.2989 17.144C42.2535 17.144 41.4002 16.824 40.7389 16.184C40.0775 15.5333 39.7469 14.5947 39.7469 13.368V8.264H40.8509V13.24C40.8509 14.1893 41.0855 14.9147 41.5549 15.416C42.0349 15.9173 42.6855 16.168 43.5069 16.168C44.3495 16.168 45.0215 15.9013 45.5229 15.368C46.0242 14.8347 46.2749 14.0507 46.2749 13.016V8.264H47.3949ZM50.5119 6.616C50.2879 6.616 50.0959 6.536 49.9359 6.376C49.7759 6.216 49.6959 6.01867 49.6959 5.784C49.6959 5.54933 49.7759 5.35733 49.9359 5.208C50.0959 5.048 50.2879 4.968 50.5119 4.968C50.7359 4.968 50.9279 5.048 51.0879 5.208C51.2479 5.35733 51.3279 5.54933 51.3279 5.784C51.3279 6.01867 51.2479 6.216 51.0879 6.376C50.9279 6.536 50.7359 6.616 50.5119 6.616ZM51.0719 8.264V17H49.9519V8.264H51.0719ZM54.7281 5.16V17H53.6081V5.16H54.7281ZM56.7524 12.616C56.7524 11.72 56.9337 10.936 57.2964 10.264C57.659 9.58133 58.155 9.05867 58.7844 8.696C59.4244 8.32267 60.1444 8.136 60.9444 8.136C61.7124 8.136 62.4057 8.32267 63.0244 8.696C63.643 9.06933 64.0964 9.55467 64.3844 10.152V5.16H65.5044V17H64.3844V15.048C64.1177 15.656 63.6804 16.1573 63.0724 16.552C62.4644 16.936 61.7497 17.128 60.9284 17.128C60.1284 17.128 59.4084 16.9413 58.7684 16.568C58.139 16.1947 57.643 15.6667 57.2804 14.984C56.9284 14.3013 56.7524 13.512 56.7524 12.616ZM64.3844 12.632C64.3844 11.928 64.2404 11.3093 63.9524 10.776C63.6644 10.2427 63.2697 9.832 62.7684 9.544C62.2777 9.256 61.7337 9.112 61.1364 9.112C60.5177 9.112 59.963 9.25067 59.4724 9.528C58.9817 9.80533 58.5924 10.2107 58.3044 10.744C58.027 11.2667 57.8884 11.8907 57.8884 12.616C57.8884 13.3307 58.027 13.96 58.3044 14.504C58.5924 15.0373 58.9817 15.448 59.4724 15.736C59.963 16.0133 60.5177 16.152 61.1364 16.152C61.7337 16.152 62.2777 16.008 62.7684 15.72C63.2697 15.432 63.6644 15.0213 63.9524 14.488C64.2404 13.9547 64.3844 13.336 64.3844 12.632ZM68.6213 6.616C68.3973 6.616 68.2053 6.536 68.0453 6.376C67.8853 6.216 67.8053 6.01867 67.8053 5.784C67.8053 5.54933 67.8853 5.35733 68.0453 5.208C68.2053 5.048 68.3973 4.968 68.6213 4.968C68.8453 4.968 69.0373 5.048 69.1973 5.208C69.3573 5.35733 69.4373 5.54933 69.4373 5.784C69.4373 6.01867 69.3573 6.216 69.1973 6.376C69.0373 6.536 68.8453 6.616 68.6213 6.616ZM69.1813 8.264V17H68.0613V8.264H69.1813ZM75.8135 8.104C76.8588 8.104 77.7122 8.42933 78.3735 9.08C79.0348 9.72 79.3655 10.6533 79.3655 11.88V17H78.2615V12.008C78.2615 11.0587 78.0215 10.3333 77.5415 9.832C77.0722 9.33067 76.4268 9.08 75.6055 9.08C74.7628 9.08 74.0908 9.34667 73.5895 9.88C73.0882 10.4133 72.8375 11.1973 72.8375 12.232V17H71.7175V8.264H72.8375V9.752C73.1148 9.21867 73.5148 8.81333 74.0375 8.536C74.5602 8.248 75.1522 8.104 75.8135 8.104ZM85.5065 8.136C86.3278 8.136 87.0425 8.328 87.6505 8.712C88.2585 9.096 88.6958 9.58133 88.9625 10.168V8.264H90.0825V17.224C90.0825 18.024 89.9065 18.7333 89.5545 19.352C89.2132 19.9707 88.7332 20.4453 88.1145 20.776C87.4958 21.1173 86.7918 21.288 86.0025 21.288C84.8825 21.288 83.9492 21.0213 83.2025 20.488C82.4665 19.9547 82.0078 19.2293 81.8265 18.312H82.9305C83.1225 18.92 83.4852 19.4053 84.0185 19.768C84.5625 20.1307 85.2238 20.312 86.0025 20.312C86.5678 20.312 87.0745 20.1893 87.5225 19.944C87.9705 19.7093 88.3225 19.3573 88.5785 18.888C88.8345 18.4187 88.9625 17.864 88.9625 17.224V15.064C88.6852 15.6613 88.2425 16.1573 87.6345 16.552C87.0372 16.936 86.3278 17.128 85.5065 17.128C84.7065 17.128 83.9865 16.9413 83.3465 16.568C82.7172 16.1947 82.2212 15.6667 81.8585 14.984C81.5065 14.3013 81.3305 13.512 81.3305 12.616C81.3305 11.72 81.5065 10.936 81.8585 10.264C82.2212 9.58133 82.7172 9.05867 83.3465 8.696C83.9865 8.32267 84.7065 8.136 85.5065 8.136ZM88.9625 12.632C88.9625 11.928 88.8185 11.3093 88.5305 10.776C88.2425 10.2427 87.8478 9.832 87.3465 9.544C86.8558 9.256 86.3118 9.112 85.7145 9.112C85.0958 9.112 84.5412 9.25067 84.0505 9.528C83.5598 9.80533 83.1705 10.2107 82.8825 10.744C82.6052 11.2667 82.4665 11.8907 82.4665 12.616C82.4665 13.3307 82.6052 13.96 82.8825 14.504C83.1705 15.0373 83.5598 15.448 84.0505 15.736C84.5412 16.0133 85.0958 16.152 85.7145 16.152C86.3118 16.152 86.8558 16.008 87.3465 15.72C87.8478 15.432 88.2425 15.0213 88.5305 14.488C88.8185 13.9547 88.9625 13.336 88.9625 12.632ZM102.262 11.224C102.891 11.3413 103.425 11.6613 103.862 12.184C104.299 12.7067 104.518 13.3147 104.518 14.008C104.518 14.5733 104.374 15.0853 104.086 15.544C103.809 15.992 103.398 16.3493 102.854 16.616C102.31 16.872 101.659 17 100.902 17H97.03V5.816H100.79C101.921 5.816 102.779 6.07733 103.366 6.6C103.963 7.12267 104.262 7.8 104.262 8.632C104.262 9.32533 104.075 9.89067 103.702 10.328C103.329 10.7547 102.849 11.0533 102.262 11.224ZM98.15 10.76H100.758C101.515 10.76 102.097 10.584 102.502 10.232C102.918 9.86933 103.126 9.37333 103.126 8.744C103.126 8.12533 102.918 7.64 102.502 7.288C102.097 6.936 101.499 6.76 100.71 6.76H98.15V10.76ZM100.822 16.056C101.633 16.056 102.262 15.864 102.71 15.48C103.169 15.096 103.398 14.568 103.398 13.896C103.398 13.224 103.158 12.6907 102.678 12.296C102.209 11.8907 101.574 11.688 100.774 11.688H98.15V16.056H100.822ZM107.697 5.16V17H106.577V5.16H107.697ZM114.057 17.128C113.236 17.128 112.494 16.9467 111.833 16.584C111.182 16.2107 110.665 15.688 110.281 15.016C109.908 14.3333 109.721 13.5387 109.721 12.632C109.721 11.7253 109.913 10.936 110.297 10.264C110.681 9.58133 111.204 9.05867 111.865 8.696C112.526 8.32267 113.268 8.136 114.089 8.136C114.91 8.136 115.652 8.32267 116.313 8.696C116.985 9.05867 117.508 9.58133 117.881 10.264C118.265 10.936 118.457 11.7253 118.457 12.632C118.457 13.528 118.265 14.3173 117.881 15C117.497 15.6827 116.969 16.2107 116.297 16.584C115.625 16.9467 114.878 17.128 114.057 17.128ZM114.057 16.152C114.633 16.152 115.166 16.024 115.657 15.768C116.148 15.5013 116.542 15.1067 116.841 14.584C117.15 14.0507 117.305 13.4 117.305 12.632C117.305 11.864 117.156 11.2187 116.857 10.696C116.558 10.1627 116.164 9.768 115.673 9.512C115.182 9.24533 114.649 9.112 114.073 9.112C113.497 9.112 112.964 9.24533 112.473 9.512C111.982 9.768 111.588 10.1627 111.289 10.696C111.001 11.2187 110.857 11.864 110.857 12.632C110.857 13.4 111.001 14.0507 111.289 14.584C111.588 15.1067 111.977 15.5013 112.457 15.768C112.948 16.024 113.481 16.152 114.057 16.152ZM119.987 12.632C119.987 11.7253 120.168 10.936 120.531 10.264C120.893 9.58133 121.395 9.05867 122.035 8.696C122.675 8.32267 123.405 8.136 124.227 8.136C125.304 8.136 126.189 8.40267 126.883 8.936C127.587 9.46933 128.04 10.1947 128.243 11.112H127.043C126.893 10.4827 126.568 9.992 126.067 9.64C125.576 9.27733 124.963 9.096 124.227 9.096C123.64 9.096 123.112 9.22933 122.643 9.496C122.173 9.76267 121.8 10.1627 121.523 10.696C121.256 11.2187 121.123 11.864 121.123 12.632C121.123 13.4 121.256 14.0507 121.523 14.584C121.8 15.1173 122.173 15.5173 122.643 15.784C123.112 16.0507 123.64 16.184 124.227 16.184C124.963 16.184 125.576 16.008 126.067 15.656C126.568 15.2933 126.893 14.792 127.043 14.152H128.243C128.04 15.048 127.587 15.768 126.883 16.312C126.179 16.856 125.293 17.128 124.227 17.128C123.405 17.128 122.675 16.9467 122.035 16.584C121.395 16.2107 120.893 15.688 120.531 15.016C120.168 14.3333 119.987 13.5387 119.987 12.632ZM135.031 17L131.431 13.08V17H130.311V5.16H131.431V12.168L134.951 8.264H136.519L132.375 12.616L136.551 17H135.031ZM141.007 17.128C140.004 17.128 139.183 16.8987 138.543 16.44C137.913 15.9707 137.561 15.336 137.487 14.536H138.639C138.692 15.0267 138.921 15.4267 139.327 15.736C139.743 16.0347 140.297 16.184 140.991 16.184C141.599 16.184 142.073 16.04 142.415 15.752C142.767 15.464 142.943 15.1067 142.943 14.68C142.943 14.3813 142.847 14.136 142.655 13.944C142.463 13.752 142.217 13.6027 141.919 13.496C141.631 13.3787 141.236 13.256 140.735 13.128C140.084 12.9573 139.556 12.7867 139.151 12.616C138.745 12.4453 138.399 12.1947 138.111 11.864C137.833 11.5227 137.695 11.0693 137.695 10.504C137.695 10.0773 137.823 9.68267 138.079 9.32C138.335 8.95733 138.697 8.66933 139.167 8.456C139.636 8.24267 140.169 8.136 140.767 8.136C141.705 8.136 142.463 8.376 143.039 8.856C143.615 9.32533 143.924 9.976 143.967 10.808H142.847C142.815 10.296 142.612 9.88533 142.239 9.576C141.876 9.256 141.375 9.096 140.735 9.096C140.169 9.096 139.711 9.22933 139.359 9.496C139.007 9.76267 138.831 10.0933 138.831 10.488C138.831 10.8293 138.932 11.112 139.135 11.336C139.348 11.5493 139.609 11.72 139.919 11.848C140.228 11.9653 140.644 12.0987 141.167 12.248C141.796 12.4187 142.297 12.584 142.671 12.744C143.044 12.904 143.364 13.1387 143.631 13.448C143.897 13.7573 144.036 14.168 144.047 14.68C144.047 15.1493 143.919 15.5707 143.663 15.944C143.407 16.3067 143.049 16.5947 142.591 16.808C142.132 17.0213 141.604 17.128 141.007 17.128Z" fill="#4B4B4B"/>
</svg>