<svg
width="30"
height="34"
viewBox="0 0 30 34"
fill="none"
xmlns="http://www.w3.org/2000/svg"
>
<path
    d="M5 3.66665V10.3333H25V3.66665H28.345C29.2583 3.66665 30 4.40831 30 5.32165V32.0116C29.9996 32.4504 29.8251 32.8711 29.5148 33.1814C29.2045 33.4917 28.7838 33.6662 28.345 33.6666H1.655C1.2162 33.6662 0.795503 33.4917 0.485225 33.1814C0.174948 32.8711 0.000441225 32.4504 0 32.0116V5.32165C0 4.40831 0.741667 3.66665 1.655 3.66665H5ZM10 25.3333H6.66667V28.6666H10V25.3333ZM10 20.3333H6.66667V23.6666H10V20.3333ZM10 15.3333H6.66667V18.6666H10V15.3333ZM21.6667 0.333313V6.99998H8.33333V0.333313H21.6667Z"
    fill="#4B4B4B"
/>
</svg>