<svg width="40" height="38" viewBox="0 0 40 38" fill="none" xmlns="http://www.w3.org/2000/svg">
<path d="M40 18C40 27.665 31.045 35.5 20 35.5C18.0191 35.5027 16.0465 35.2455 14.1325 34.735C12.6725 35.475 9.32 36.895 3.68 37.82C3.18 37.9 2.8 37.38 2.9975 36.915C3.8825 34.825 4.6825 32.04 4.9225 29.5C1.86 26.425 0 22.4 0 18C0 8.335 8.955 0.5 20 0.5C31.045 0.5 40 8.335 40 18ZM12.5 18C12.5 17.337 12.2366 16.7011 11.7678 16.2322C11.2989 15.7634 10.663 15.5 10 15.5C9.33696 15.5 8.70107 15.7634 8.23223 16.2322C7.76339 16.7011 7.5 17.337 7.5 18C7.5 18.663 7.76339 19.2989 8.23223 19.7678C8.70107 20.2366 9.33696 20.5 10 20.5C10.663 20.5 11.2989 20.2366 11.7678 19.7678C12.2366 19.2989 12.5 18.663 12.5 18ZM22.5 18C22.5 17.337 22.2366 16.7011 21.7678 16.2322C21.2989 15.7634 20.663 15.5 20 15.5C19.337 15.5 18.7011 15.7634 18.2322 16.2322C17.7634 16.7011 17.5 17.337 17.5 18C17.5 18.663 17.7634 19.2989 18.2322 19.7678C18.7011 20.2366 19.337 20.5 20 20.5C20.663 20.5 21.2989 20.2366 21.7678 19.7678C22.2366 19.2989 22.5 18.663 22.5 18ZM30 20.5C30.663 20.5 31.2989 20.2366 31.7678 19.7678C32.2366 19.2989 32.5 18.663 32.5 18C32.5 17.337 32.2366 16.7011 31.7678 16.2322C31.2989 15.7634 30.663 15.5 30 15.5C29.337 15.5 28.7011 15.7634 28.2322 16.2322C27.7634 16.7011 27.5 17.337 27.5 18C27.5 18.663 27.7634 19.2989 28.2322 19.7678C28.7011 20.2366 29.337 20.5 30 20.5Z" fill="#4B4B4B"/>
</svg>
