<svg width="30" height="34" viewBox="0 0 30 34" fill="none" xmlns="http://www.w3.org/2000/svg">
<path fill-rule="evenodd" clip-rule="evenodd" d="M5 10.3333V3.66665H1.655C0.741667 3.66665 0 4.40831 0 5.32165V32.0116C0.000441225 32.4504 0.174948 32.8711 0.485225 33.1814C0.795503 33.4917 1.2162 33.6662 1.655 33.6666H28.345C28.7838 33.6662 29.2045 33.4917 29.5148 33.1814C29.8251 32.8711 29.9996 32.4504 30 32.0116V5.32165C30 4.40831 29.2583 3.66665 28.345 3.66665H25V10.3333H5ZM8.33333 6.99998H21.6667V0.333313H8.33333V6.99998ZM22.3223 16.9656C22.3298 16.7171 22.2383 16.4758 22.0679 16.2948C21.8975 16.1138 21.6622 16.0079 21.4137 16.0004C21.1653 15.9929 20.924 16.0844 20.7429 16.2548L11.4079 25.0523L8.61545 22.2185C8.52955 22.1286 8.42661 22.0566 8.31264 22.0069C8.19866 21.9571 8.07592 21.9305 7.95157 21.9287C7.82722 21.9268 7.70374 21.9497 7.58832 21.996C7.4729 22.0423 7.36785 22.1112 7.27929 22.1985C7.19073 22.2858 7.12043 22.3899 7.07248 22.5046C7.02453 22.6194 6.99989 22.7425 7 22.8669C7.00011 22.9912 7.02496 23.1143 7.07311 23.229C7.12126 23.3437 7.19174 23.4476 7.28045 23.5348L10.6304 26.9348C10.8253 27.1324 11.0898 27.246 11.3673 27.2511C11.6449 27.2562 11.9134 27.1526 12.1154 26.9623L22.0279 17.6198C22.2089 17.4494 22.3148 17.214 22.3223 16.9656Z" fill="#4B4B4B"/>
</svg>

