<svg width="60" height="59" viewBox="0 0 60 59" fill="none" xmlns="http://www.w3.org/2000/svg">
<rect x="0.902832" width="58.4272" height="59" fill="white"/>
<path d="M16 19C16 18.2044 16.3161 17.4413 16.8787 16.8787C17.4413 16.3161 18.2044 16 19 16H41C41.7956 16 42.5587 16.3161 43.1213 16.8787C43.6839 17.4413 44 18.2044 44 19V33C44 33.7956 43.6839 34.5587 43.1213 35.1213C42.5587 35.6839 41.7956 36 41 36H30V26C30 24.9391 29.5786 23.9217 28.8284 23.1716C28.0783 22.4214 27.0609 22 26 22H16V19Z" fill="#4B4B4B"/>
<path d="M30 40H45C45.2652 40 45.5196 39.8946 45.7071 39.7071C45.8946 39.5196 46 39.2652 46 39C46 38.7348 45.8946 38.4804 45.7071 38.2929C45.5196 38.1054 45.2652 38 45 38H30V40Z" fill="#4B4B4B"/>
<path d="M14 27C14 26.2044 14.3161 25.4413 14.8787 24.8787C15.4413 24.3161 16.2044 24 17 24H25C25.7956 24 26.5587 24.3161 27.1213 24.8787C27.6839 25.4413 28 26.2044 28 27V43C28 43.7956 27.6839 44.5587 27.1213 45.1213C26.5587 45.6839 25.7956 46 25 46H17C16.2044 46 15.4413 45.6839 14.8787 45.1213C14.3161 44.5587 14 43.7956 14 43V27ZM20 40C19.7348 40 19.4804 40.1054 19.2929 40.2929C19.1054 40.4804 19 40.7348 19 41C19 41.2652 19.1054 41.5196 19.2929 41.7071C19.4804 41.8946 19.7348 42 20 42H22C22.2652 42 22.5196 41.8946 22.7071 41.7071C22.8946 41.5196 23 41.2652 23 41C23 40.7348 22.8946 40.4804 22.7071 40.2929C22.5196 40.1054 22.2652 40 22 40H20Z" fill="#4B4B4B"/>
</svg>
