<svg width="50" height="31" viewBox="0 0 50 31" fill="none" xmlns="http://www.w3.org/2000/svg">
<path d="M33.9609 0H27.25C26.625 0 26.0234 0.234375 25.5625 0.65625L17.8828 7.6875C17.875 7.69531 17.8672 7.71094 17.8594 7.71875C16.5625 8.9375 16.5859 10.8828 17.6953 12.0937C18.6875 13.1797 20.7734 13.4687 22.0781 12.3047C22.0859 12.2969 22.1016 12.2969 22.1094 12.2891L28.3516 6.57031C28.8594 6.10938 29.6562 6.14062 30.1172 6.64844C30.5859 7.15625 30.5469 7.94531 30.0391 8.41406L28 10.2812L39.375 19.5156C39.6016 19.7031 39.8047 19.9062 39.9922 20.1172V5L35.7266 0.734375C35.2656 0.265625 34.625 0 33.9609 0ZM42.5 5.01562V22.5078C42.5 23.8906 43.6172 25.0078 45 25.0078H50V5.01562H42.5ZM46.25 22.5078C45.5625 22.5078 45 21.9453 45 21.2578C45 20.5703 45.5625 20.0078 46.25 20.0078C46.9375 20.0078 47.5 20.5703 47.5 21.2578C47.5 21.9453 46.9375 22.5078 46.25 22.5078ZM0 25H5C6.38281 25 7.5 23.8828 7.5 22.5V5.01562H0V25ZM3.75 20.0078C4.4375 20.0078 5 20.5703 5 21.2578C5 21.9453 4.4375 22.5078 3.75 22.5078C3.0625 22.5078 2.5 21.9453 2.5 21.2578C2.5 20.5625 3.0625 20.0078 3.75 20.0078ZM37.8047 21.4609L26.1406 11.9922L23.7969 14.1406C21.4766 16.2578 17.9219 16.0547 15.8516 13.7969C13.75 11.5 13.9141 7.94531 16.1953 5.85156L22.5859 0H16.0391C15.375 0 14.7422 0.265625 14.2734 0.734375L10 5V22.4922H11.4297L18.5 28.8906C20.6406 30.6328 23.7891 30.3047 25.5312 28.1641L25.5469 28.1484L26.9453 29.3594C28.1875 30.375 30.0234 30.1797 31.0312 28.9375L33.4844 25.9219L33.9062 26.2656C34.9766 27.1328 36.5547 26.9766 37.4219 25.8984L38.1641 24.9844C39.0391 23.9062 38.875 22.3359 37.8047 21.4609Z" fill="#4B4B4B"/>
</svg>
