<svg width="22" height="22" viewBox="0 0 22 22" fill="none" xmlns="http://www.w3.org/2000/svg">
<path d="M11 8.38062C10.482 8.38082 9.97565 8.53461 9.54502 8.82255C9.1144 9.11049 8.77882 9.51964 8.58071 9.99829C8.38261 10.4769 8.33088 11.0036 8.43206 11.5116C8.53324 12.0197 8.78279 12.4863 9.14915 12.8525C9.51552 13.2188 9.98225 13.4681 10.4903 13.5691C10.9984 13.6701 11.525 13.6182 12.0036 13.4199C12.4822 13.2216 12.8912 12.8859 13.179 12.4551C13.4668 12.0244 13.6204 11.518 13.6204 11C13.6198 10.3053 13.3436 9.63919 12.8522 9.14805C12.3609 8.65691 11.6947 8.38089 11 8.38062ZM17.1242 6.36723C16.9908 6.0293 16.7894 5.72237 16.5326 5.46548C16.2757 5.20859 15.9687 5.00723 15.6308 4.87388C14.5996 4.46679 12.1442 4.55813 11 4.55813C9.8558 4.55813 7.4029 4.46335 6.36871 4.87388C6.03077 5.00723 5.72384 5.20859 5.46695 5.46548C5.21007 5.72237 5.0087 6.0293 4.87536 6.36723C4.46875 7.39848 4.5596 9.85629 4.5596 10.9995C4.5596 12.1427 4.46875 14.5976 4.87732 15.6323C5.01067 15.9702 5.21203 16.2771 5.46892 16.534C5.7258 16.7909 6.03273 16.9923 6.37067 17.1256C7.40192 17.5327 9.85728 17.4414 11.002 17.4414C12.1467 17.4414 14.5986 17.5362 15.6328 17.1256C15.9707 16.9923 16.2776 16.7909 16.5345 16.534C16.7914 16.2771 16.9928 15.9702 17.1261 15.6323C17.5362 14.601 17.4419 12.1432 17.4419 11C17.4419 9.85679 17.5362 7.40241 17.1261 6.36772L17.1242 6.36723ZM11 15.0268C10.2036 15.0268 9.42504 14.7906 8.76284 14.3482C8.10064 13.9057 7.58451 13.2768 7.27974 12.541C6.97496 11.8052 6.89521 10.9955 7.05059 10.2144C7.20596 9.43329 7.58948 8.71579 8.15263 8.15263C8.71579 7.58948 9.43329 7.20596 10.2144 7.05059C10.9955 6.89521 11.8052 6.97496 12.541 7.27974C13.2768 7.58451 13.9057 8.10064 14.3482 8.76284C14.7906 9.42504 15.0268 10.2036 15.0268 11C15.0274 11.529 14.9237 12.0529 14.7216 12.5417C14.5194 13.0306 14.2229 13.4748 13.8488 13.8488C13.4748 14.2229 13.0306 14.5194 12.5417 14.7216C12.0529 14.9237 11.529 15.0274 11 15.0268ZM15.1928 7.7442C15.0069 7.74429 14.8251 7.68925 14.6704 7.58603C14.5158 7.48281 14.3953 7.33605 14.3241 7.16431C14.2528 6.99258 14.2342 6.80358 14.2704 6.62122C14.3066 6.43886 14.3961 6.27134 14.5275 6.13984C14.6589 6.00834 14.8264 5.91878 15.0087 5.88247C15.1911 5.84616 15.3801 5.86475 15.5519 5.93587C15.7236 6.007 15.8704 6.12747 15.9737 6.28205C16.077 6.43663 16.1322 6.61837 16.1322 6.80429C16.1327 6.92775 16.1088 7.0501 16.062 7.16432C16.0151 7.27853 15.9461 7.38237 15.859 7.46988C15.7719 7.55739 15.6684 7.62684 15.5544 7.67425C15.4404 7.72166 15.3182 7.7461 15.1947 7.74616L15.1928 7.7442ZM19.6429 0H2.35714C1.73199 0 1.13244 0.248341 0.690391 0.690391C0.248341 1.13244 0 1.73199 0 2.35714L0 19.6429C0 20.268 0.248341 20.8676 0.690391 21.3096C1.13244 21.7517 1.73199 22 2.35714 22H19.6429C20.268 22 20.8676 21.7517 21.3096 21.3096C21.7517 20.8676 22 20.268 22 19.6429V2.35714C22 1.73199 21.7517 1.13244 21.3096 0.690391C20.8676 0.248341 20.268 0 19.6429 0ZM18.8021 14.2411C18.7388 15.4997 18.4515 16.6149 17.5327 17.5312C16.6139 18.4476 15.4997 18.7408 14.2425 18.8007C12.9456 18.8738 9.05732 18.8738 7.7604 18.8007C6.50179 18.7373 5.39049 18.4496 4.47022 17.5312C3.54996 16.6129 3.26071 15.4972 3.2008 14.2411C3.12763 12.9437 3.12763 9.05487 3.2008 7.75893C3.26415 6.50031 3.54799 5.38509 4.47022 4.46875C5.39246 3.55241 6.5067 3.26268 7.7604 3.20277C9.05732 3.1296 12.9456 3.1296 14.2425 3.20277C15.5012 3.26612 16.6159 3.55388 17.5327 4.47219C18.4496 5.39049 18.7422 6.50621 18.8021 7.76482C18.8753 9.05732 18.8753 12.9427 18.8021 14.2411Z" fill="#076DF2"/>
</svg>
