<svg width="40" height="40" viewBox="0 0 40 40" fill="none" xmlns="http://www.w3.org/2000/svg">
<path d="M39.1484 30.9141L30 21.7656C28.1953 19.9609 25.5 19.6094 23.3281 20.6797L15 12.3516V7.5L5 0L-5.96046e-08 5L7.5 15H12.3516L20.6797 23.3281C19.6172 25.5 19.9609 28.1953 21.7656 30L30.9141 39.1484C32.0547 40.2891 33.8984 40.2891 35.0312 39.1484L39.1484 35.0312C40.2812 33.8906 40.2812 32.0469 39.1484 30.9141ZM25.9141 17.5781C28.125 17.5781 30.2031 18.4375 31.7656 20L33.2812 21.5156C34.5156 20.9766 35.6875 20.2266 36.7031 19.2109C39.6016 16.3125 40.5859 12.2344 39.6641 8.53125C39.4922 7.82812 38.6094 7.58594 38.0938 8.10156L32.2812 13.9141L26.9766 13.0312L26.0938 7.72656L31.9062 1.91406C32.4219 1.39844 32.1719 0.515625 31.4609 0.335938C27.7578 -0.578125 23.6797 0.40625 20.7891 3.29688C18.5625 5.52344 17.5156 8.46094 17.5703 11.3906L23.9844 17.8047C24.6172 17.6562 25.2734 17.5781 25.9141 17.5781ZM17.7969 23.9844L13.3672 19.5547L1.46094 31.4688C-0.492188 33.4219 -0.492188 36.5859 1.46094 38.5391C3.41406 40.4922 6.57812 40.4922 8.53125 38.5391L18.1875 28.8828C17.5938 27.3281 17.4141 25.6328 17.7969 23.9844ZM5 36.875C3.96875 36.875 3.125 36.0312 3.125 35C3.125 33.9609 3.96094 33.125 5 33.125C6.03906 33.125 6.875 33.9609 6.875 35C6.875 36.0312 6.03906 36.875 5 36.875Z" fill="#4B4B4B"/>
</svg>
